#!OML:ASF X:\für Bonn\!DataBase\2005_08_11_Bastian_Final\c3d\Bastian.ASF
:FULLY-SPECIFIED
:DEGREES
217
root 2.94133 17.3101 -3.56766 901.21 39.0021 -170.833
lowerback 17.2954 -5.00946 6.30824
upperback 14.5081 -3.3262 7.32
thorax 6.16968 -0.462685 4.90535
lowerneck -22.4206 -10.8759 -18.6467
upperneck -3.91983 -10.2523 25.2213
head 5.10157 -3.28968 10.2423
rclavicle 5.48646e-014 -1.08139e-013
rhumerus -27.4377 5.74408 -79.7248
rradius 50.34
rwrist 4.7497
rhand -12.9488 13.8384
rfingers 7.12502
rthumb 13.1425 -15.7275
lclavicle 5.48646e-014 -1.08139e-013
lhumerus -17.1244 -22.4231 94.9574
lradius 25.5363
lwrist 21.0754
lhand -15.1006 -7.82918
lfingers 7.12502
lthumb 11.0677 21.859
rfemur -15.7971 -7.36819 30.0109
rtibia 43.13
rfoot -13.8534 -2.379
rtoes -9.4964
lfemur -3.95666 -1.31721 -5.70641
ltibia 68.8997
lfoot 12.1468 -7.24878
ltoes -25.5353
218
root 3.02337 17.325 -3.60376 900.996 38.8776 -170.808
lowerback 17.4132 -4.92506 6.17897
upperback 14.4949 -3.21659 7.28406
thorax 6.09107 -0.417081 4.92671
lowerneck -22.2241 -10.9922 -18.9738
upperneck -3.86671 -10.399 25.3494
head 5.14981 -3.37037 10.3243
rclavicle -6.20208e-014 1.33583e-013
rhumerus -27.5585 6.12811 -79.9854
rradius 51.1729
rwrist 4.91953
rhand -12.9167 13.9951
rfingers 7.12502
rthumb 13.1735 -15.5687
lclavicle -6.20208e-014 1.33583e-013
lhumerus -17.3618 -22.0369 94.8748
lradius 25.3549
lwrist 20.9129
lhand -15.0781 -7.90563
lfingers 7.12502
lthumb 11.0894 21.7814
rfemur -14.9893 -7.28889 30.1421
rtibia 42.6805
rfoot -14.0263 -2.63125
rtoes -9.2234
lfemur -5.12179 -1.26502 -5.58607
ltibia 70.2196
lfoot 11.4776 -7.3984
ltoes -25.6441
219
root 3.10381 17.337 -3.64044 900.833 38.7572 -170.69
lowerback 17.5121 -4.83548 6.1344
upperback 14.489 -3.08961 7.25311
thorax 6.02561 -0.354134 4.90383
lowerneck -22.0036 -11.1243 -19.2761
upperneck -3.84445 -10.5738 25.478
head 5.19082 -3.46654 10.3968
rclavicle -9.38264e-014 7.95139e-015
rhumerus -27.6718 6.44057 -80.2436
rradius 51.9836
rwrist 5.09037
rhand -12.8432 14.1105
rfingers 7.12502
rthumb 13.2443 -15.4487
lclavicle -9.38264e-014 7.95139e-015
lhumerus -17.6214 -21.6139 94.7975
lradius 25.2515
lwrist 20.8229
lhand -15.0069 -7.97795
lfingers 7.12502
lthumb 11.1581 21.7054
rfemur -14.1835 -7.18922 30.3562
rtibia 42.2343
rfoot -14.1889 -2.9446
rtoes -9.07822
lfemur -6.26395 -1.1807 -5.38449
ltibia 71.4292
lfoot 10.6594 -7.65487
ltoes -25.7503
220
root 3.18324 17.3479 -3.67675 900.601 38.6067 -170.666
lowerback 17.621 -4.74571 6.01952
upperback 14.4795 -2.97366 7.19492
thorax 5.95281 -0.302795 4.89102
lowerneck -21.7949 -11.2504 -19.5566
upperneck -3.78778 -10.7518 25.5947
head 5.24284 -3.56426 10.4605
rclavicle -5.80451e-014 1.43125e-014
rhumerus -27.7769 6.69983 -80.5231
rradius 52.7505
rwrist 5.31724
rhand -12.7738 14.2118
rfingers 7.12502
rthumb 13.3113 -15.3431
lclavicle -5.80451e-014 1.43125e-014
lhumerus -17.9021 -21.2541 94.7033
lradius 25.2038
lwrist 20.8771
lhand -15.0129 -8.12239
lfingers 7.12502
lthumb 11.1523 21.5612
rfemur -13.3769 -7.11123 30.4882
rtibia 41.8016
rfoot -14.3683 -3.22382
rtoes -8.65802
lfemur -7.39108 -1.15976 -5.29813
ltibia 72.4826
lfoot 9.83906 -7.86769
ltoes -25.5587
221
root 3.26169 17.3566 -3.71352 900.407 38.4626 -170.579
lowerback 17.7147 -4.65479 5.93606
upperback 14.4766 -2.85224 7.15118
thorax 5.89481 -0.245514 4.87571
lowerneck -21.5405 -11.3637 -19.8531
upperneck -3.78979 -10.9071 25.7471
head 5.27101 -3.65243 10.5446
rclavicle -4.6118e-014 -1.30403e-013
rhumerus -27.8351 6.93749 -80.7885
rradius 53.4421
rwrist 5.57607
rhand -12.6973 14.2739
rfingers 7.12502
rthumb 13.385 -15.2762
lclavicle -4.6118e-014 -1.30403e-013
lhumerus -18.1983 -20.9428 94.6044
lradius 25.2401
lwrist 21.0062
lhand -15.0217 -8.20912
lfingers 7.12502
lthumb 11.1438 21.475
rfemur -12.5773 -7.01624 30.6806
rtibia 41.3784
rfoot -14.5771 -3.5587
rtoes -8.40264
lfemur -8.49975 -1.14007 -5.17409
ltibia 73.372
lfoot 9.08228 -8.05546
ltoes -25.0379
222
root 3.34012 17.3652 -3.7511 900.218 38.3272 -170.497
lowerback 17.8085 -4.55698 5.83537
upperback 14.4578 -2.72838 7.09822
thorax 5.81838 -0.190246 4.85833
lowerneck -21.2944 -11.4577 -20.0776
upperneck -3.73826 -11.0624 25.8488
head 5.30731 -3.74331 10.597
rclavicle 1.43125e-014 -8.5875e-014
rhumerus -27.9263 7.21277 -81.0745
rradius 54.1521
rwrist 5.72644
rhand -12.6247 14.2703
rfingers 7.12502
rthumb 13.4549 -15.2751
lclavicle 1.43125e-014 -8.5875e-014
lhumerus -18.5474 -20.7175 94.4998
lradius 25.3457
lwrist 21.2529
lhand -15.054 -8.24939
lfingers 7.12502
lthumb 11.1127 21.4364
rfemur -11.7929 -6.94334 30.8663
rtibia 40.9608
rfoot -14.7863 -3.86654
rtoes -8.18929
lfemur -9.5691 -1.13242 -5.08258
ltibia 74.0676
lfoot 8.32044 -8.23124
ltoes -24.442
223
root 3.41733 17.3719 -3.78993 899.983 38.1727 -170.476
lowerback 17.8896 -4.4647 5.69383
upperback 14.4546 -2.61771 7.04042
thorax 5.76881 -0.143564 4.86035
lowerneck -21.0373 -11.5543 -20.3379
upperneck -3.71965 -11.2096 25.9697
head 5.33489 -3.83009 10.6646
rclavicle 0 1.33583e-013
rhumerus -27.9381 7.48363 -81.3286
rradius 54.7911
rwrist 5.9095
rhand -12.5762 14.2405
rfingers 7.12502
rthumb 13.5017 -15.3018
lclavicle 0 1.33583e-013
lhumerus -18.8492 -20.4146 94.4078
lradius 25.4335
lwrist 21.4386
lhand -15.1099 -8.32659
lfingers 7.12502
lthumb 11.0587 21.3621
rfemur -10.9951 -6.90591 30.9934
rtibia 40.5404
rfoot -15.0057 -4.14033
rtoes -7.93732
lfemur -10.6004 -1.17867 -5.08081
ltibia 74.6014
lfoot 7.5685 -8.3543
ltoes -23.7736
224
root 3.4944 17.3796 -3.8302 899.775 38.0424 -170.391
lowerback 17.9876 -4.36248 5.57888
upperback 14.4458 -2.48744 6.99895
thorax 5.70296 -0.0852615 4.86307
lowerneck -20.7443 -11.6256 -20.5392
upperneck -3.70753 -11.3404 26.0422
head 5.34277 -3.91475 10.7066
rclavicle -2.22639e-014 -7.79236e-014
rhumerus -27.9512 7.78625 -81.5676
rradius 55.4099
rwrist 6.01114
rhand -12.489 14.1096
rfingers 7.12502
rthumb 13.5857 -15.4271
lclavicle -2.22639e-014 -7.79236e-014
lhumerus -19.1875 -20.1593 94.3342
lradius 25.5685
lwrist 21.5867
lhand -15.1398 -8.36235
lfingers 7.12502
lthumb 11.0299 21.3279
rfemur -10.179 -6.87503 31.1724
rtibia 40.1098
rfoot -15.196 -4.41764
rtoes -7.85387
lfemur -11.5887 -1.21784 -5.04295
ltibia 74.997
lfoot 6.73067 -8.51356
ltoes -23.2471
225
root 3.57099 17.3853 -3.87129 899.58 37.8864 -170.314
lowerback 18.0542 -4.27081 5.47164
upperback 14.4427 -2.37467 6.94636
thorax 5.65944 -0.0345012 4.85079
lowerneck -20.4992 -11.7075 -20.7205
upperneck -3.66476 -11.4884 26.1239
head 5.37136 -4.00327 10.7451
rclavicle -4.92986e-014 6.36111e-014
rhumerus -27.9509 8.07056 -81.8179
rradius 56.0183
rwrist 6.14005
rhand -12.3967 13.9735
rfingers 7.12502
rthumb 13.6747 -15.5573
lclavicle -4.92986e-014 6.36111e-014
lhumerus -19.4945 -19.8184 94.2272
lradius 25.6757
lwrist 21.6454
lhand -15.202 -8.40881
lfingers 7.12502
lthumb 10.97 21.2846
rfemur -9.37812 -6.87519 31.3408
rtibia 39.6733
rfoot -15.3999 -4.65863
rtoes -7.55335
lfemur -12.5893 -1.26575 -5.02374
ltibia 75.2895
lfoot 5.84516 -8.67668
ltoes -23.076
226
root 3.64634 17.3908 -3.91181 899.384 37.7367 -170.264
lowerback 18.131 -4.15625 5.35424
upperback 14.4187 -2.23651 6.8824
thorax 5.58492 0.0262958 4.82708
lowerneck -20.2026 -11.7816 -20.8721
upperneck -3.65326 -11.6377 26.2032
head 5.38136 -4.09667 10.7776
rclavicle -2.94201e-014 1.60618e-013
rhumerus -27.9971 8.3046 -82.071
rradius 56.6142
rwrist 6.24379
rhand -12.312 13.8898
rfingers 7.12502
rthumb 13.7563 -15.6354
lclavicle -2.94201e-014 1.60618e-013
lhumerus -19.8048 -19.5194 94.1337
lradius 25.7591
lwrist 21.6027
lhand -15.2772 -8.43582
lfingers 7.12502
lthumb 10.8973 21.2614
rfemur -8.59733 -6.88088 31.4901
rtibia 39.2311
rfoot -15.5672 -4.91254
rtoes -7.50546
lfemur -13.5928 -1.27035 -5.03511
ltibia 75.4865
lfoot 4.87649 -8.91273
ltoes -23.1733
227
root 3.72178 17.3959 -3.95128 899.162 37.5769 -170.213
lowerback 18.243 -4.04164 5.21105
upperback 14.4056 -2.094 6.82759
thorax 5.50614 0.0887316 4.82859
lowerneck -19.901 -11.8546 -21.0078
upperneck -3.66674 -11.7843 26.2721
head 5.38062 -4.18966 10.8037
rclavicle 2.94201e-014 -7.95139e-014
rhumerus -28.0024 8.58573 -82.2923
rradius 57.1643
rwrist 6.2425
rhand -12.2069 13.8037
rfingers 7.12502
rthumb 13.8576 -15.7147
lclavicle 2.94201e-014 -7.95139e-014
lhumerus -20.1041 -19.1108 94.0377
lradius 25.804
lwrist 21.3867
lhand -15.3457 -8.5328
lfingers 7.12502
lthumb 10.8313 21.1679
rfemur -7.78684 -6.89616 31.6402
rtibia 38.7858
rfoot -15.7498 -5.1457
rtoes -7.28028
lfemur -14.5645 -1.28842 -5.0558
ltibia 75.589
lfoot 3.86723 -9.14003
ltoes -23.1875
228
root 3.79654 17.3992 -3.99084 898.959 37.4198 -170.193
lowerback 18.3003 -3.92476 5.07459
upperback 14.3976 -1.95911 6.73475
thorax 5.45913 0.148112 4.78403
lowerneck -19.6606 -11.9384 -21.1065
upperneck -3.65155 -11.9482 26.3577
head 5.40205 -4.28463 10.8257
rclavicle -2.06736e-014 4.29375e-014
rhumerus -27.9963 8.81978 -82.5703
rradius 57.6678
rwrist 6.24173
rhand -12.1541 13.8018
rfingers 7.12502
rthumb 13.9085 -15.7131
lclavicle -2.06736e-014 4.29375e-014
lhumerus -20.4431 -18.8243 93.9174
lradius 25.974
lwrist 21.2847
lhand -15.4157 -8.5449
lfingers 7.12502
lthumb 10.7638 21.1593
rfemur -7.02924 -6.92868 31.7709
rtibia 38.3512
rfoot -15.8866 -5.38327
rtoes -7.34514
lfemur -15.5474 -1.26605 -5.10248
ltibia 75.5986
lfoot 2.84127 -9.41789
ltoes -22.9054
229
root 3.87225 17.4015 -4.03092 898.761 37.2633 -170.152
lowerback 18.3545 -3.80856 4.9375
upperback 14.3949 -1.82367 6.6557
thorax 5.42056 0.20809 4.7552
lowerneck -19.4113 -12.0152 -21.2116
upperneck -3.6308 -12.1039 26.4313
head 5.42091 -4.37725 10.8462
rclavicle 1.54257e-013 -4.53229e-014
rhumerus -27.9857 9.08847 -82.8146
rradius 58.1538
rwrist 6.25641
rhand -12.0863 13.7754
rfingers 7.12502
rthumb 13.9738 -15.7349
lclavicle 1.54257e-013 -4.53229e-014
lhumerus -20.8542 -18.6328 93.834
lradius 26.2365
lwrist 21.2476
lhand -15.4544 -8.54289
lfingers 7.12502
lthumb 10.7265 21.1633
rfemur -6.26095 -6.93673 31.9195
rtibia 37.9259
rfoot -16.0425 -5.61786
rtoes -7.2385
lfemur -16.4942 -1.23098 -5.14262
ltibia 75.5107
lfoot 1.76275 -9.73748
ltoes -22.5976
